<?xml version="1.0" standalone="no"?>
<!DOCTYPE svg PUBLIC "-//W3C//DTD SVG 20010904//EN"
 "http://www.w3.org/TR/2001/REC-SVG-20010904/DTD/svg10.dtd">
<svg version="1.0" xmlns="http://www.w3.org/2000/svg"
 width="860.000000pt" height="860.000000pt" viewBox="0 0 860.000000 860.000000"
 preserveAspectRatio="xMidYMid meet">
<metadata>
Created by potrace 1.11, written by Peter Selinger 2001-2013
</metadata>
<g transform="translate(0.000000,860.000000) scale(0.100000,-0.100000)"
fill="#000000" stroke="none">
<path d="M4070 8197 c-3 -2 -50 -7 -105 -11 -333 -20 -726 -103 -1045 -219
-620 -225 -1187 -624 -1666 -1172 -95 -110 -82 -94 -156 -190 -436 -575 -683
-1185 -772 -1910 -27 -215 -28 -819 -2 -975 3 -14 7 -47 11 -75 32 -268 107
-577 200 -830 20 -55 38 -104 39 -110 18 -62 189 -401 275 -545 62 -105 219
-330 296 -426 82 -101 257 -293 362 -395 186 -182 312 -288 503 -425 69 -49
127 -92 128 -96 2 -5 7 -8 12 -8 4 0 61 -32 126 -71 195 -116 432 -230 613
-295 123 -44 115 -41 123 -43 4 -1 27 -9 50 -17 162 -58 547 -139 755 -159
765 -74 1469 25 2079 293 284 125 563 291 814 485 161 124 232 188 415 371
184 185 216 219 309 336 38 47 72 86 77 88 5 2 9 8 9 14 0 6 15 29 33 52 48
59 175 254 242 370 106 186 196 378 261 556 19 52 37 102 41 110 3 8 7 17 8
20 1 3 7 23 14 45 148 485 207 1015 171 1535 -11 148 -13 168 -31 300 -73 525
-242 1001 -519 1459 -198 328 -481 661 -805 949 -154 137 -190 166 -354 284
-413 296 -883 505 -1366 609 -179 39 -318 62 -450 74 -38 4 -81 9 -95 12 -33
6 -594 16 -600 10z m378 -3615 c61 -23 125 -69 117 -83 -3 -5 0 -6 7 -4 18 7
84 -81 111 -147 28 -71 30 -211 4 -286 -24 -68 -82 -144 -146 -192 -74 -56
-138 -75 -246 -74 -137 1 -229 45 -318 153 -59 73 -81 139 -81 251 0 123 24
187 101 271 64 69 116 102 193 124 71 19 188 14 258 -13z"/>
</g>
</svg>
